<svg width="349" height="101" viewBox="0 0 349 101" fill="none" xmlns="http://www.w3.org/2000/svg">
<path d="M24.5912 91.992C21.1352 91.992 17.8232 91.752 14.6552 91.272C11.5352 90.792 9.11122 90.24 7.38322 89.616V77.808C12.4712 78.72 17.0312 79.176 21.0632 79.176C23.7992 79.176 25.7672 78.744 26.9672 77.88C28.2152 77.064 28.8392 75.504 28.8392 73.2V70.104C27.6392 71.64 26.0792 73.008 24.1592 74.208C22.2872 75.408 20.1272 76.008 17.6792 76.008C12.7832 76.008 9.08722 74.184 6.59122 70.536C4.14322 66.888 2.91922 61.704 2.91922 54.984C2.91922 48.264 4.14322 43.08 6.59122 39.432C9.08722 35.784 12.7832 33.96 17.6792 33.96C20.1272 33.96 22.2872 34.56 24.1592 35.76C26.0792 36.96 27.6392 38.328 28.8392 39.864V34.968H48.5672V46.776H45.3992V72.12C45.3992 79.08 43.6712 84.12 40.2152 87.24C36.7592 90.408 31.5512 91.992 24.5912 91.992ZM24.6632 63.192C26.0552 63.192 27.0872 62.832 27.7592 62.112C28.4792 61.344 28.8392 60.168 28.8392 58.584V51.384C28.8392 49.8 28.4792 48.648 27.7592 47.928C27.0872 47.16 26.0552 46.776 24.6632 46.776C23.2712 46.776 22.2152 47.16 21.4952 47.928C20.8232 48.648 20.4872 49.8 20.4872 51.384V58.584C20.4872 60.168 20.8232 61.344 21.4952 62.112C22.2152 62.832 23.2712 63.192 24.6632 63.192ZM81.3486 33.96C82.3086 33.96 83.2206 34.056 84.0846 34.248C84.9486 34.44 85.6686 34.68 86.2446 34.968V48.72C84.2766 47.904 82.1646 47.496 79.9086 47.496C76.8846 47.496 74.5566 48.288 72.9246 49.872C71.2926 51.456 70.4766 53.808 70.4766 56.928V63.192H76.9566V75H50.7486V63.192H53.9166V46.776H50.7486V34.968H70.4766V40.224C71.8206 38.208 73.3566 36.672 75.0846 35.616C76.8126 34.512 78.9006 33.96 81.3486 33.96ZM130.549 63.192V75H111.541V70.104C110.485 71.64 108.997 73.008 107.077 74.208C105.205 75.408 102.901 76.008 100.165 76.008C96.5653 76.008 93.7333 75.048 91.6693 73.128C89.6053 71.208 88.5733 68.496 88.5733 64.992C88.5733 55.92 96.2773 51.264 111.685 51.024C111.541 49.392 110.917 48.288 109.813 47.712C108.709 47.088 106.837 46.776 104.197 46.776C102.037 46.776 99.7093 47.016 97.2133 47.496C94.7653 47.928 92.5093 48.528 90.4453 49.296V36.048C92.9893 35.424 95.7493 34.92 98.7253 34.536C101.701 34.152 104.605 33.96 107.437 33.96C114.589 33.96 119.701 35.256 122.773 37.848C125.845 40.44 127.381 44.448 127.381 49.872V63.192H130.549ZM111.541 58.152C109.381 58.152 107.701 58.44 106.501 59.016C105.349 59.592 104.773 60.552 104.773 61.896C104.773 62.712 105.013 63.384 105.493 63.912C106.021 64.392 106.741 64.632 107.653 64.632C108.901 64.632 109.861 64.104 110.533 63.048C111.205 61.992 111.541 60.504 111.541 58.584V58.152ZM132.582 79.176H135.75V46.776H132.582V34.968H152.31V39.864C153.51 38.328 155.046 36.96 156.918 35.76C158.838 34.56 161.022 33.96 163.47 33.96C168.366 33.96 172.038 35.784 174.486 39.432C176.982 43.08 178.23 48.264 178.23 54.984C178.23 61.704 176.982 66.888 174.486 70.536C172.038 74.184 168.366 76.008 163.47 76.008C161.022 76.008 158.838 75.408 156.918 74.208C155.046 73.008 153.51 71.64 152.31 70.104V79.176H157.278V90.984H132.582V79.176ZM156.486 63.192C157.878 63.192 158.91 62.832 159.582 62.112C160.302 61.344 160.662 60.168 160.662 58.584V51.384C160.662 49.8 160.302 48.648 159.582 47.928C158.91 47.16 157.878 46.776 156.486 46.776C155.094 46.776 154.038 47.16 153.318 47.928C152.646 48.648 152.31 49.8 152.31 51.384V58.584C152.31 60.168 152.646 61.344 153.318 62.112C154.038 62.832 155.094 63.192 156.486 63.192ZM228.069 63.192V75H205.317V63.192H208.341V51.384C208.341 49.8 208.005 48.648 207.333 47.928C206.661 47.16 205.653 46.776 204.309 46.776C201.429 46.776 199.989 48.312 199.989 51.384V63.192H203.013V75H180.261V63.192H183.429V30.792H180.261V18.984H199.989V40.584C201.765 38.376 203.685 36.72 205.749 35.616C207.813 34.512 210.213 33.96 212.949 33.96C216.933 33.96 219.909 35.208 221.877 37.704C223.893 40.2 224.901 43.632 224.901 48V63.192H228.069ZM233.85 31.008V18.984H248.538V31.008H233.85ZM230.394 75V63.192H233.562V46.776H230.394V34.968H250.122V63.192H253.29V75H230.394ZM273.068 76.008C267.98 76.008 264.14 74.784 261.548 72.336C259.004 69.84 257.732 65.664 257.732 59.808V46.776H254.564V34.968C256.388 34.968 257.756 34.512 258.668 33.6C259.58 32.64 260.036 31.344 260.036 29.712V26.472H275.3V34.968H285.02V46.776H275.3V58.584C275.3 60.168 275.636 61.344 276.308 62.112C277.028 62.832 278.084 63.192 279.476 63.192C281.3 63.192 283.292 62.976 285.452 62.544V73.848C284.108 74.376 282.284 74.856 279.98 75.288C277.724 75.768 275.42 76.008 273.068 76.008ZM309.225 76.008C302.409 76.008 297.081 74.232 293.241 70.68C289.401 67.08 287.481 61.848 287.481 54.984C287.481 48.12 289.401 42.912 293.241 39.36C297.081 35.76 302.409 33.96 309.225 33.96C315.993 33.96 320.865 35.736 323.841 39.288C326.865 42.792 328.377 47.16 328.377 52.392V57.576H305.049V58.008C305.049 59.784 305.577 61.104 306.633 61.968C307.689 62.784 309.441 63.192 311.889 63.192C314.817 63.192 317.601 62.976 320.241 62.544C322.881 62.112 325.185 61.56 327.153 60.888V72.408C325.473 73.32 323.001 74.16 319.737 74.928C316.521 75.648 313.017 76.008 309.225 76.008ZM313.401 49.656V48.792C313.401 47.16 313.041 45.984 312.321 45.264C311.649 44.544 310.617 44.184 309.225 44.184C307.833 44.184 306.777 44.568 306.057 45.336C305.385 46.056 305.049 47.208 305.049 48.792V49.656H313.401Z" fill="#202021"/>
<path d="M332.103 75V63.192H343.335V75H332.103Z" fill="#FFBD27"/>
</svg>
