<svg width="656.963" height="157.776" viewBox="0 0 492.722 118.332" xmlns="http://www.w3.org/2000/svg" xmlns:xlink="http://www.w3.org/1999/xlink"><defs><g id="b"><defs><path id="a" d="M106.107 77.63s.024 10.422-1.111 14.939c-1.134 4.518-3.218 7.667-5.527 9.976-2.32 2.318-5.392 4.428-10.075 5.526-4.683 1.098-14.845 1.079-14.845 1.079l-36.916.016s-10.424.024-14.942-1.11c-4.519-1.136-7.669-3.218-9.978-5.527-2.32-2.319-4.428-5.39-5.526-10.073-1.1-4.683-1.08-14.843-1.08-14.843v-36.91s-.024-10.423 1.11-14.94c1.135-4.517 3.22-7.667 5.528-9.976 2.32-2.319 5.392-4.427 10.075-5.526 4.683-1.098 14.845-1.079 14.845-1.079l36.916-.016s10.424-.024 14.942 1.11c4.52 1.135 7.67 3.219 9.978 5.527 2.319 2.32 4.428 5.391 5.526 10.073 1.099 4.683 1.08 14.842 1.08 14.842V77.63z"/></defs><use xlink:href="#a" fill="#34bbed" fill-rule="evenodd"/></g></defs><use xlink:href="#b"/><g><defs><g id="d"><defs><path id="c" d="M78.828 55.443l.19-2.342-.107-.09-18.245 21.742 4.73 19.434 10.552-3.054z"/></defs><use xlink:href="#c" fill="#b3b3b3" fill-rule="evenodd"/></g></defs><use xlink:href="#d"/><defs><g id="f"><defs><path id="e" d="M58.929 36.058l-.273-.228-2.169.57-34.957 9.071-1.174 10.922L40.768 57.7z"/></defs><use xlink:href="#e" fill="#d1d1d1" fill-rule="evenodd"/></g></defs><use xlink:href="#f"/><defs><g id="h"><defs><path id="g" d="M66.676 47.014l3.337-14.146-11.702 2.986-18.319 21.832z"/></defs><use xlink:href="#g" fill="#fff" fill-rule="evenodd"/></g></defs><use xlink:href="#h"/><defs><g id="j"><defs><path id="i" d="M60.713 75.073L79.026 53.25l.931-11.741-13.366 5.488z"/></defs><use xlink:href="#i" fill="#d1d1d1" fill-rule="evenodd"/></g></defs><use xlink:href="#j"/><defs><g id="l"><defs><path id="k" d="M66.681 46.971l-26.69 10.715-.013.016.25.696 5.136 13.934.028.012.003-.006 14.568 2.62.737.13.013-.015z"/></defs><use xlink:href="#k" fill="#eaeaea" fill-rule="evenodd"/></g></defs><use xlink:href="#l"/><defs><g id="n"><defs><path id="m" d="M80.912 30.012l.005-.006.002-.059-10.905 2.922-3.382 14.162 13.325-5.523z"/></defs><use xlink:href="#m" fill="#eaeaea" fill-rule="evenodd"/></g></defs><use xlink:href="#n"/></g><defs><g id="p"><defs><path id="o" d="M120.521 67.687l6.791-.593c.322 2.72 1.07 4.954 2.245 6.698 1.175 1.744 3 3.154 5.474 4.23 2.474 1.076 5.257 1.614 8.35 1.614 2.746 0 5.17-.408 7.273-1.224 2.103-.817 3.668-1.936 4.694-3.359 1.027-1.422 1.54-2.974 1.54-4.657 0-1.707-.494-3.197-1.484-4.471-.99-1.275-2.622-2.344-4.898-3.21-1.46-.57-4.689-1.454-9.686-2.654s-8.498-2.331-10.502-3.395c-2.598-1.36-4.533-3.05-5.808-5.066-1.274-2.016-1.911-4.273-1.911-6.772 0-2.746.78-5.313 2.338-7.7 1.559-2.388 3.835-4.2 6.828-5.437 2.994-1.237 6.321-1.855 9.983-1.855 4.032 0 7.589.65 10.669 1.948 3.08 1.299 5.449 3.21 7.106 5.733 1.658 2.524 2.548 5.381 2.672 8.573l-6.902.52c-.371-3.44-1.627-6.037-3.767-7.794-2.14-1.756-5.3-2.635-9.481-2.635-4.355 0-7.527.798-9.519 2.394-1.991 1.596-2.987 3.52-2.987 5.77 0 1.955.705 3.563 2.115 4.825 1.385 1.261 5.004 2.554 10.854 3.878 5.851 1.323 9.865 2.48 12.042 3.47 3.167 1.459 5.505 3.308 7.014 5.547 1.509 2.24 2.264 4.818 2.264 7.738 0 2.894-.829 5.622-2.486 8.182-1.658 2.56-4.039 4.552-7.144 5.975-3.105 1.422-6.599 2.134-10.483 2.134-4.924 0-9.049-.718-12.376-2.153-3.328-1.435-5.938-3.593-7.831-6.475-1.892-2.882-2.888-6.142-2.987-9.779zm66.871 11.504l.965 5.9c-1.88.396-3.562.594-5.047.594-2.424 0-4.304-.383-5.64-1.15-1.336-.767-2.276-1.775-2.821-3.024-.544-1.25-.816-3.878-.816-7.886V50.95h-4.899v-5.195h4.899v-9.76l6.642-4.008v13.768h6.717v5.195h-6.717v23.045c0 1.905.118 3.13.353 3.674s.619.977 1.15 1.299c.532.321 1.293.482 2.283.482.742 0 1.719-.087 2.931-.26zm33.51-6.717l6.902.854c-1.088 4.032-3.104 7.162-6.048 9.389-2.944 2.226-6.705 3.34-11.282 3.34-5.764 0-10.335-1.776-13.712-5.326-3.377-3.55-5.065-8.529-5.065-14.936 0-6.63 1.707-11.776 5.121-15.438 3.414-3.661 7.843-5.492 13.285-5.492 5.27 0 9.574 1.794 12.914 5.38 3.34 3.588 5.01 8.635 5.01 15.142 0 .395-.012.99-.037 1.78h-29.391c.248 4.33 1.472 7.645 3.674 9.946 2.202 2.3 4.948 3.451 8.238 3.451 2.45 0 4.54-.643 6.272-1.93 1.732-1.286 3.105-3.34 4.119-6.16zM198.97 61.676h22.006c-.297-3.316-1.138-5.802-2.523-7.46-2.128-2.572-4.886-3.859-8.276-3.859-3.067 0-5.646 1.027-7.737 3.08-2.09 2.054-3.247 4.8-3.47 8.239zm62.938 18.629c-2.474 2.102-4.855 3.587-7.144 4.453-2.288.866-4.743 1.299-7.366 1.299-4.329 0-7.657-1.058-9.982-3.173-2.326-2.116-3.489-4.818-3.489-8.109 0-1.93.44-3.692 1.318-5.288.878-1.596 2.028-2.876 3.451-3.84 1.423-.966 3.024-1.695 4.806-2.19 1.311-.346 3.29-.68 5.937-1.002 5.393-.643 9.364-1.41 11.912-2.3.025-.916.037-1.498.037-1.745 0-2.721-.63-4.639-1.892-5.752-1.707-1.51-4.243-2.264-7.608-2.264-3.142 0-5.461.55-6.958 1.652-1.496 1.1-2.603 3.049-3.321 5.844l-6.531-.89c.594-2.796 1.571-5.053 2.931-6.773 1.361-1.719 3.328-3.043 5.901-3.97 2.573-.928 5.554-1.392 8.943-1.392 3.365 0 6.099.396 8.201 1.188 2.103.791 3.649 1.787 4.639 2.987.99 1.2 1.682 2.715 2.078 4.546.223 1.138.334 3.191.334 6.16v8.906c0 6.21.142 10.137.427 11.782a14.854 14.854 0 001.688 4.732h-6.976c-.693-1.386-1.138-3.006-1.336-4.861zm-.557-14.919c-2.424.99-6.061 1.831-10.91 2.524-2.746.396-4.688.841-5.826 1.336-1.138.495-2.016 1.218-2.635 2.17a5.708 5.708 0 00-.928 3.174c0 1.78.675 3.265 2.023 4.453 1.348 1.187 3.321 1.781 5.919 1.781 2.573 0 4.861-.563 6.865-1.688 2.004-1.126 3.476-2.666 4.416-4.62.718-1.51 1.076-3.736 1.076-6.68zm16.959 19.78V30.764h6.68v54.402zm31.617-5.975l.965 5.9c-1.88.396-3.562.594-5.047.594-2.424 0-4.304-.383-5.64-1.15-1.336-.767-2.276-1.775-2.821-3.024-.544-1.25-.816-3.878-.816-7.886V50.95h-4.898v-5.195h4.898v-9.76l6.643-4.008v13.768h6.716v5.195h-6.716v23.045c0 1.905.117 3.13.352 3.674s.619.977 1.151 1.299c.531.321 1.292.482 2.282.482.742 0 1.719-.087 2.931-.26zm6.532 5.975V30.764h6.679v19.519c3.118-3.612 7.051-5.418 11.801-5.418 2.919 0 5.455.575 7.608 1.726 2.152 1.15 3.692 2.74 4.62 4.768.927 2.029 1.391 4.973 1.391 8.832v24.975h-6.679V60.19c0-3.34-.724-5.77-2.171-7.292-1.448-1.521-3.495-2.282-6.142-2.282-1.979 0-3.841.513-5.585 1.54-1.744 1.027-2.987 2.418-3.729 4.175-.743 1.756-1.114 4.18-1.114 7.273v21.56zm41.97 15.178l-.742-6.272c1.46.396 2.734.594 3.822.594 1.485 0 2.672-.248 3.563-.742a6.063 6.063 0 002.189-2.079c.421-.667 1.101-2.325 2.041-4.972.124-.371.322-.916.594-1.633l-14.955-39.484h7.199l8.202 22.822a101.519 101.519 0 012.857 9.129 89.834 89.834 0 012.746-8.98l8.424-22.971h6.68l-14.993 40.078c-1.608 4.33-2.857 7.31-3.748 8.943-1.187 2.202-2.548 3.816-4.082 4.843-1.534 1.027-3.364 1.54-5.492 1.54-1.286 0-2.721-.272-4.305-.816zm34.549-15.178v-7.608h7.608v7.608zm21.301 0V30.764h7.199v54.402zm19.668 0V30.764h10.836l12.877 38.519c1.187 3.587 2.053 6.272 2.598 8.053.618-1.98 1.583-4.886 2.894-8.72l13.025-37.852h9.686v54.402h-6.939V39.633l-15.809 45.533h-6.494l-15.735-46.313v46.313z"/></defs><use xlink:href="#o"/></g></defs><use xlink:href="#p"/></svg>