<?xml version="1.0" encoding="UTF-8"?>
<svg width="339px" height="167px" viewBox="0 0 339 167" version="1.1" xmlns="http://www.w3.org/2000/svg" xmlns:xlink="http://www.w3.org/1999/xlink">
    <!-- Generator: Sketch 51.2 (57519) - http://www.bohemiancoding.com/sketch -->
    <title>Group</title>
    <desc>Created with Sketch.</desc>
    <defs>
        <linearGradient x1="50%" y1="0%" x2="50%" y2="100%" id="linearGradient-1">
            <stop stop-color="#E6AE31" offset="0%"></stop>
            <stop stop-color="#E6AE31" stop-opacity="0" offset="100%"></stop>
        </linearGradient>
    </defs>
    <g id="💻-Protocol-Brand/Site" stroke="none" stroke-width="1" fill="none" fill-rule="evenodd">
        <g id="Logo-Copy" transform="translate(-520.000000, -428.000000)">
            <g id="Group" transform="translate(518.000000, 427.000000)">
                <g id="Group-20-Copy" transform="translate(0.859969, 0.632833)" fill="url(#linearGradient-1)">
                    <g id="Group-19">
                        <g id="Group-2-Copy" transform="translate(58.277400, 57.834094) rotate(-90.000000) translate(-58.277400, -57.834094) translate(0.777400, 2.834094)">
                            <ellipse id="Oval" cx="57.0495946" cy="54.8306232" rx="57.0495946" ry="54.7216317"></ellipse>
                        </g>
                        <g id="Group-2-Copy-2" transform="translate(55.641849, 110.664345) rotate(-270.000000) translate(-55.641849, -110.664345) translate(-1.858151, 55.664345)">
                            <ellipse id="Oval" cx="57.0495946" cy="54.8306232" rx="57.0495946" ry="54.7216317"></ellipse>
                        </g>
                    </g>
                </g>
                <path d="M191.548766,135.128719 C176.523925,135.128719 164.316241,131.640809 154.657415,126.140644 L163.108888,100.517924 L163.77964,100.517924 C168.474903,119.298975 183.097293,128.957802 196.64648,128.957802 C204.293051,128.957802 209.927366,124.53084 209.927366,117.42087 C209.927366,113.128058 208.183412,109.103547 200.40269,105.615638 L178.133729,95.4202099 C164.986993,89.249293 158.145324,78.2489628 158.145324,66.4437305 C158.145324,51.8213404 167.4017,35.8574466 194.231773,35.8574466 C206.305307,35.8574466 220.256945,39.7478072 228.171817,44.1747694 L218.51299,66.1754297 L217.842238,66.1754297 C212.476223,49.6749345 200.536841,41.7600628 188.865759,41.7600628 C179.072782,41.7600628 175.584872,46.7236264 175.584872,51.1505885 C175.584872,55.5775507 177.865429,59.7362121 184.975398,63.2241216 L207.915111,74.0903014 C222.671651,80.9319702 227.098614,89.3834434 227.098614,101.054525 C227.098614,120.103878 212.878675,135.128719 191.548766,135.128719 Z M271.985753,114.469562 C278.693271,114.469562 283.656835,112.457307 287.278895,107.359593 L288.352098,107.627893 C284.730038,128.28705 270.778399,134.457967 260.04637,134.457967 C244.619078,134.457967 229.460086,122.116133 229.460086,98.6398188 C229.460086,76.1025569 242.740972,60.0045128 260.985422,60.0045128 C272.388204,60.0045128 288.620398,66.0412794 288.620398,91.5298493 L249.985092,91.5298493 C251.997348,106.688841 260.04637,114.469562 271.985753,114.469562 Z M258.034114,64.4314749 C252.533949,64.4314749 249.448491,71.5414444 249.448491,83.6149775 C249.448491,84.9564812 249.448491,86.1638345 249.582641,87.3711879 L266.217287,87.3711879 C266.217287,69.6633393 263.400129,64.4314749 258.034114,64.4314749 Z M339.276003,114.201261 L340.483356,114.603713 C337.532048,124.53084 329.483026,134.457967 315.531388,134.457967 C302.787103,134.457967 297.152788,126.274795 297.152788,115.140314 L297.152788,65.7729786 L290.57942,65.7729786 L290.57942,65.1022268 C300.908998,56.2483025 311.909328,48.0651301 322.507207,38.8087547 L322.641358,38.8087547 L322.641358,62.2850691 L334.983191,62.2850691 L334.983191,65.6388282 L322.641358,65.6388282 L322.641358,111.518254 C322.641358,117.28672 325.190215,121.04293 329.885477,121.04293 C335.117342,121.04293 338.06865,117.555021 339.276003,114.201261 Z" id="Set-Protocol" fill="#0F0835"></path>
            </g>
        </g>
    </g>
</svg>