<svg width="689" height="86" viewBox="0 0 689 86" fill="none" xmlns="http://www.w3.org/2000/svg">
<rect width="689" height="86"/>
<path d="M687.448 0.184578C687.903 0.184578 688.272 0.550446 688.272 1.00439V85.7366V85.8425V85.9497L617.001 22.0832C616.826 21.9277 616.727 21.7061 616.727 21.4739V2.02576C616.727 1.31605 617.572 0.941719 618.099 1.41599L672.59 50.3033C673.12 50.7784 673.963 50.4046 673.963 49.6946V1.00439C673.963 0.550446 674.33 0.184578 674.786 0.184578H687.448Z" fill="#080A18"/>
<path d="M497.77 22.9116C492.092 28.4881 489.364 35.2415 489.364 43.0682C489.364 50.8921 492.092 57.7535 497.77 63.3299C503.447 68.9056 510.434 71.584 518.405 71.584C526.373 71.584 533.252 68.9056 538.928 63.3299C544.714 57.6462 547.444 50.8921 547.444 43.0682C547.444 35.2415 544.605 28.4881 538.928 22.9116C533.252 17.3366 526.373 14.5504 518.405 14.5504C510.434 14.5504 503.557 17.2294 497.77 22.9116ZM549.19 12.8341C557.815 21.196 562.181 31.2742 562.181 43.0682C562.181 54.968 557.815 65.0449 549.19 73.299C540.674 81.6623 530.522 85.9497 518.405 85.9497C506.286 85.9497 496.134 81.6623 487.618 73.299C479.103 64.9376 474.737 54.968 474.737 43.0682C474.737 31.2742 479.103 21.196 487.618 12.8341C496.025 4.47215 506.286 0.184578 518.405 0.184578C530.522 0.184578 540.674 4.47215 549.19 12.8341Z" fill="#080A18"/>
<path d="M411.732 71.8017L397.574 84.7515C396.994 85.2807 396 84.9085 396 84.1639V0.835815C396 0.0939331 396.988 -0.278732 397.568 0.244034L411.726 12.9994C411.901 13.1566 412 13.3695 412 13.5919V71.2139C412 71.4344 411.903 71.6452 411.732 71.8017Z" fill="#080A18"/>
<path d="M306.124 55.9804L323.057 84.7224C323.38 85.2701 322.971 85.9497 322.323 85.9497H307.357C307.054 85.9497 306.777 85.7929 306.625 85.5395L281.97 44.2029C281.642 43.6537 282.054 42.9675 282.709 42.9735L294.38 43.0682C298.36 43.0682 301.786 41.6721 304.659 38.8859C307.645 36.0996 309.08 32.6671 309.08 28.7005C309.08 24.8411 307.645 21.5195 304.659 18.7294C301.786 15.9431 298.36 14.5504 294.38 14.5504C294.38 14.5504 266.384 14.5504 265.221 14.5504C264.058 14.5504 263.293 13.0167 263.293 13.0167C263.24 12.967 263.195 12.9101 263.16 12.8493L256.322 1.41599C255.997 0.868881 256.402 0.184578 257.054 0.184578H294.38C302.45 0.184578 309.412 2.97092 315.159 8.54649C320.907 14.2269 323.778 20.8763 323.778 28.7005C323.778 34.7035 322.122 40.0637 318.586 44.8897C315.352 49.4418 311.331 52.7514 306.525 54.8243C306.066 55.0228 305.874 55.5555 306.124 55.9804Z" fill="#080A18"/>
<path d="M151.247 71.584H194.801C195.273 71.584 195.655 71.9513 195.655 72.4044V85.1292C195.655 85.5825 195.273 85.9497 194.801 85.9497H136.889C136.417 85.9497 136.034 85.5825 136.034 85.1292C136.034 84.9011 136.133 84.6827 136.308 84.5272L150.665 71.8024C150.824 71.6614 151.031 71.584 151.247 71.584ZM150.515 35.9919H183.672C184.144 35.9919 184.527 36.3591 184.527 36.8117V49.43C184.527 49.8831 184.144 50.2491 183.672 50.2491H150.515H150.925V35.9919H150.515ZM195.655 1.00439V13.7306C195.655 14.1832 195.273 14.5504 194.801 14.5504H151.268C151.04 14.5504 150.821 14.4623 150.66 14.3082L137.481 1.58199C136.946 1.06537 137.327 0.184578 138.087 0.184578H194.801C195.273 0.184578 195.655 0.550446 195.655 1.00439Z" fill="#080A18"/>
<path d="M35.6857 57.2553C30.2412 65.3472 26.3668 71.1027 26.3068 71.1885C26.1031 71.4742 26.3068 71.4327 26.3068 71.4327L56.7855 71.4347C56.9944 71.4347 57.1965 71.5119 57.3488 71.6525L71.2579 84.348C71.4274 84.5013 71.5233 84.7191 71.5233 84.9467C71.5233 85.3988 71.1517 85.7651 70.6946 85.7651H2.4471C1.20584 85.7651 0.0878381 84.663 0.0878381 83.4373C0.0878381 83.4373 -0.34361 81.411 0.705904 79.7014C0.918204 79.398 7.78713 69.3932 16.0651 57.3332L35.6857 57.2553ZM35.6634 28.7803C41.1507 20.7841 45.0851 15.0524 45.1912 14.898C45.5474 14.3793 45.1912 14.4083 45.1912 14.4083L26.4472 14.3291H13.687C13.4661 14.3291 13.2538 14.2419 13.098 14.0868L0.330956 1.3923C-0.189521 0.876945 0.182003 7.62939e-06 0.918204 7.62939e-06H26.4472H69.164C70.4053 7.62939e-06 71.5233 1.10168 71.5233 2.32668C71.5233 2.32668 71.715 3.57991 70.96 4.75609C70.609 5.30591 63.336 16.131 54.7601 28.8886L35.6634 28.7803Z" fill="#080A18"/>
</svg>
