
		<svg xmlns="http://www.w3.org/2000/svg" xmlns:xlink="http://www.w3.org/1999/xlink" version="1.1" width="3191.6932907348237" height="1044.7284345047922">
			
			<g transform="scale(9.584664536741213) translate(10, 10)">
				<defs id="SvgjsDefs4872"/><g id="SvgjsG4873" featureKey="symbolFeature-0" transform="matrix(2.03125,0,0,2.03125,24,24)" fill="#fff"><g xmlns="http://www.w3.org/2000/svg" display="none"><rect x="-69.333" y="-18.667" display="inline" width="473.333" height="236"/></g><g xmlns="http://www.w3.org/2000/svg" display="none"><g display="inline"><rect x="5.658" y="5.658" transform="matrix(0.7071 -0.7071 0.7071 0.7071 -6.6274 16)" width="20.684" height="20.684"/></g><g display="inline"><polygon points="6.907,11.237 12.17,16.5 6.907,21.763 10.737,25.593 16,20.33 21.263,25.593 25.093,21.763     19.83,16.5 25.093,11.237 21.263,7.407 16,12.67 10.737,7.407   "/></g><g display="inline"><g><path d="M16,4.243L27.757,16L16,27.757L4.243,16L16,4.243 M16,0L0,16l16,16l16-16L16,0L16,0z"/></g></g></g><g xmlns="http://www.w3.org/2000/svg"><path d="M0,16l16,16l16-16L16,0L0,16z M20.214,8.456L16,12.67l-4.214-4.214L16,4.243L20.214,8.456z M7.956,12.286L12.17,16.5   l-3.714,3.714L4.243,16L7.956,12.286z M12.286,24.044L16,20.33l3.714,3.714L16,27.757L12.286,24.044z M23.544,20.214L19.83,16.5   l4.214-4.214L27.757,16L23.544,20.214z"/></g></g><g id="SvgjsG4874" featureKey="nameFeature-0" transform="matrix(1.024945616722107,0,0,1.024945616722107,111.65968632484346,30.76317015934233)" fill="#fff"><path d="M22.8 24.84 q1.72 1.08 2.62 2.64 t0.9 3.48 q0 4.52 -3.44 6.92 q-2.32 1.68 -6.28 2.12 l-0.16 0 q-0.56 0 -0.92 -0.36 q-0.48 -0.44 -0.48 -1.04 l0 -2.88 q0 -0.52 0.36 -0.92 t0.88 -0.48 q1.88 -0.2 2.92 -0.88 q0.8 -0.48 1.08 -1.24 q0.16 -0.44 0.16 -1.12 q0 -0.44 -0.16 -0.76 t-0.56 -0.6 q-1.16 -0.8 -3 -1.36 l-0.64 -0.2 q-2 -0.56 -3.68 -0.92 q-0.36 -0.08 -1.16 -0.28 l-0.44 -0.12 q-1.44 -0.36 -3.04 -1 q-2.36 -1 -3.88 -2.52 q-1.76 -1.76 -1.76 -4.64 q0 -3.96 3.04 -6.44 q2.08 -1.76 5.84 -2.24 q0.64 -0.08 1.1 0.36 t0.46 1.04 l0 2.88 q0 0.52 -0.32 0.92 t-0.82 0.46 t-1.02 0.22 q-1.16 0.44 -1.64 0.86 t-0.68 0.86 q-0.2 0.68 -0.2 1.28 q0 0.32 0.36 0.68 q0.56 0.56 1.64 1 q0.48 0.2 1.68 0.6 l5 1.24 l0.24 0.08 q1.88 0.52 2.72 0.8 q1.88 0.64 3.28 1.56 z M16.12 15.8 q-0.48 -0.12 -0.78 -0.5 t-0.3 -0.9 l0 -2.92 q0 -0.64 0.52 -1.08 q0.2 -0.2 0.52 -0.26 t0.6 -0.02 q3.52 0.56 5.72 2.4 q3 2.48 3.2 6.32 q0.04 0.56 -0.38 1.02 t-1.02 0.46 l-3.12 0 q-0.52 0 -0.92 -0.36 t-0.44 -0.88 q-0.16 -1.04 -0.68 -1.72 q-0.84 -1 -2.6 -1.52 q-0.12 0 -0.16 -0.04 l-0.16 0 z M11.44 34.16 q0.48 0.08 0.8 0.48 t0.32 0.88 l0 2.96 q0 0.64 -0.48 1.08 q-0.4 0.32 -0.92 0.32 l-0.2 0 q-3.72 -0.56 -6.12 -2.44 q-3.12 -2.48 -3.52 -6.92 q-0.08 -0.64 0.36 -1.1 t1.04 -0.46 l3.16 0 q0.56 0 0.96 0.38 t0.44 0.94 q0.12 2 1.96 3.08 q0.84 0.48 2.2 0.8 z M35.36 10 q0.56 0 0.98 0.42 t0.42 0.98 l0 26.56 q0 0.56 -0.42 0.98 t-0.98 0.42 l-3 0 q-0.56 0 -0.98 -0.42 t-0.42 -0.98 l0 -26.56 q0 -0.56 0.42 -0.98 t0.98 -0.42 l3 0 z M70.48 10 q0.56 0 0.98 0.42 t0.42 0.98 l0 26.56 q0 0.56 -0.42 0.98 t-0.98 0.42 l-3 0 q-0.56 0 -0.98 -0.42 t-0.42 -0.98 l0 -17.92 l-7.36 9.44 q-0.4 0.52 -1.08 0.52 l0 0 q-0.68 0 -1.08 -0.52 l-7.52 -9.48 l0 17.96 q0 0.56 -0.42 0.98 t-0.98 0.42 l-3 0 q-0.56 0 -0.98 -0.42 t-0.42 -0.98 l0 -26.56 q0 -0.56 0.42 -0.98 t0.98 -0.42 l3.48 0 q0.68 0 1.12 0.56 l8.4 11.12 l8.24 -11.12 q0.16 -0.28 0.48 -0.42 t0.64 -0.14 l3.48 0 z M91.72 10 q4.72 0 7.62 2.7 t2.9 7.24 t-2.86 7.24 t-7.66 2.7 l-7.56 0 l0 8.08 q0 0.56 -0.42 0.98 t-0.98 0.42 l-3 0 q-0.56 0 -0.98 -0.42 t-0.42 -0.98 l0 -26.56 q0 -0.56 0.42 -0.98 t0.98 -0.42 l11.96 0 z M84.16 15.64 l0 8.64 l7.36 0 q2.6 0 3.76 -1.12 t1.16 -3.22 t-1.16 -3.14 q-1.24 -1.16 -3.76 -1.16 l-7.36 0 z M125.20000000000002 33.68 q0.6 0 1 0.42 t0.4 0.98 l0 2.88 q0 0.56 -0.4 0.98 t-1 0.42 l-17.48 0 q-0.56 0 -0.98 -0.42 t-0.42 -0.98 l0 -26.56 q0 -0.56 0.42 -0.98 t0.98 -0.42 l3 0 q0.56 0 0.98 0.42 t0.42 0.98 l0 22.28 l13.08 0 z M151.4 10 q0.6 0 1 0.42 t0.4 0.98 l0 2.88 q0 0.56 -0.4 0.98 t-1 0.42 l-15.12 0 l0 6.12 l13.36 0 q0.6 0 1 0.42 t0.4 0.98 l0 2.92 q0 0.56 -0.4 0.98 t-1 0.42 l-13.36 0 l0 6.16 l15.12 0 q0.6 0 1 0.42 t0.4 0.98 l0 2.88 q0 0.56 -0.4 0.98 t-1 0.42 l-19.52 0 q-0.56 0 -0.98 -0.42 t-0.42 -0.98 l0 -26.56 q0 -0.56 0.42 -0.98 t0.98 -0.42 l19.52 0 z M162.08 21.88 q0.6 0 1 0.42 t0.4 1.02 l0 14.96 q0 0.56 -0.4 0.98 t-1 0.42 l-3.04 0 q-0.56 0 -0.98 -0.42 t-0.42 -0.98 l0 -14.96 q0 -0.6 0.42 -1.02 t0.98 -0.42 l3.04 0 z M162.08 10 q0.6 0 1 0.42 t0.4 0.98 l0 7.4 q0 0.6 -0.4 1.02 t-1 0.42 l-3.04 0 q-0.56 0 -0.98 -0.42 t-0.42 -1.02 l0 -7.4 q0 -0.56 0.42 -0.98 t0.98 -0.42 l3.04 0 z M187.84 11.04 q2.44 0.92 4.4 2.96 q4.2 4.24 4.2 10.82 t-4.2 10.86 q-1.96 2.04 -4.4 2.96 q-2.52 1.04 -5.16 1.04 l-11.32 0 q-0.56 0 -0.98 -0.42 t-0.42 -0.98 l0 -2.88 q0 -0.6 0.42 -1.02 t0.98 -0.42 l11.2 0 q3.56 0 5.78 -2.6 t2.22 -6.52 t-2.22 -6.52 t-5.78 -2.6 l-11.2 0 q-0.56 0 -0.98 -0.42 t-0.42 -1.02 l0 -2.88 q0 -0.56 0.42 -0.98 t0.98 -0.42 l11.32 0 q2.64 0 5.16 1.04 z"/></g>
			</g>
		</svg>
	