<svg id="Layer_1" data-name="Layer 1" xmlns="http://www.w3.org/2000/svg" viewBox="0 0 3495.33 538.63"><defs><style>.cls-1{font-size:574.24px;font-family:Gruppo;}.cls-2,.cls-5{fill:#1a1a1a;}.cls-3{fill:#979797;}.cls-3,.cls-4,.cls-5,.cls-6{fill-rule:evenodd;}.cls-4{fill:#fff;}.cls-6,.cls-7{fill:#e5e5e4;}</style></defs><title>text-black-face-black-horizontal</title><text class="cls-1" transform="translate(649.38 443.3)">TERM NAL</text><rect x="2292.61" y="130.3" width="23.48" height="312.82" rx="1.98"/><path class="cls-2" d="M833.37,599.62l33.83,13.77a9.77,9.77,0,0,1,5.82,8.38h0c1.59,20.34,2.22,43.49,1.88,67.29-.34,23.44-1.61,47.21-3.83,69.25a9.63,9.63,0,0,1-6.23,8.29l-41.11,18.22c-4.6,2-9.85-.36-11.73-5.36a10.43,10.43,0,0,1-.66-4.28h0L820.68,608c.29-5.4,4.57-9.52,9.54-9.19a8.61,8.61,0,0,1,3.15.85Zm22.13,29.89L838,622.37,830.2,760.83l23.5-10.41c1.86-20.12,2.92-41.15,3.22-61.63s-.18-40.85-1.42-59.28Z" transform="translate(-339.43 -402.25)"/><path class="cls-3" d="M829.68,608.55l34.36,14c3.12,40,2.54,90.42-1.93,134.69l-41.78,18.53,9.35-167.23Z" transform="translate(-339.43 -402.25)"/><path class="cls-4" d="M832.76,638.64l26.61,8.91c1.91,28.5,1.43,60.49-1.68,86.15l-32.42,11.9,7.49-107Z" transform="translate(-339.43 -402.25)"/><path class="cls-2" d="M375.21,629.35,357.87,637c-.68,18.45-.54,38.73.38,59.28s2.61,41.46,5.08,61.51l23.8,9.7L375.21,629.35Zm-29.51-8.07,33.42-14.82a8.33,8.33,0,0,1,3.1-.92c4.95-.49,9.34,3.49,9.8,8.89l14.4,166.86h0a10.49,10.49,0,0,1-.53,4.31c-1.72,5-6.9,7.6-11.56,5.71l-41.64-17a9.62,9.62,0,0,1-6.48-8.1c-2.89-22-4.88-45.67-5.92-69.09-1.06-23.78-1.12-46.94-.15-67.32h0a9.72,9.72,0,0,1,5.57-8.54Z" transform="translate(-339.43 -402.25)"/><path class="cls-3" d="M383.05,615.3l-33.93,15c-1.91,40.07.2,90.46,6,134.56l42.33,17.26L383.05,615.3Z" transform="translate(-339.43 -402.25)"/><path class="cls-4" d="M380.89,645.47l-26.34,9.71c-1.05,28.55.4,60.49,4.28,86.05l32.76,10.92-10.7-106.68Z" transform="translate(-339.43 -402.25)"/><path class="cls-2" d="M401,540.38c-3.09,57.31-3.57,110.55-2,160.51,1.53,49.23,5.06,95.53,10.05,139.53a1748.11,1748.11,0,0,0,198.06,10.75,1515.21,1515.21,0,0,0,204.24-14.55c3.11-47.7,4.42-96.6,3.8-147-.62-50.65-3.21-103.35-7.91-158.46a1637.83,1637.83,0,0,0-199.73-7A1961.53,1961.53,0,0,0,401,540.38Zm-21.57,161c-1.65-53-1-109.42,2.48-170.21h0a9.77,9.77,0,0,1,8.46-9.16A1986.64,1986.64,0,0,1,607,504.52a1654.11,1654.11,0,0,1,209.58,7.87,9.83,9.83,0,0,1,9.46,9c5.13,57.89,8,113.76,8.62,168s-.84,106.1-4.34,156.44a9.81,9.81,0,0,1-8.4,9.11,1529.92,1529.92,0,0,1-214.79,15.83,1773,1773,0,0,1-207.76-11.66,9.79,9.79,0,0,1-8.95-8.65c-5.47-46.5-9.37-95.85-11-149Z" transform="translate(-339.43 -402.25)"/><path class="cls-4" d="M391.66,531.75c-7,121.19-2.43,224.72,8.51,317.54,136,15.43,275.75,17,420.38-4.1,7-100.57,6-207-4.27-323-137-14.2-278.84-10.05-424.62,9.55Z" transform="translate(-339.43 -402.25)"/><path class="cls-3" d="M391.66,531.75c-6,103-3.54,193.27,4,275-2.46-81.08-2.46-162.8,6.88-241.65,2.49-21-.18-20.87,25.25-26.49,63.36-14,130.79-20.35,199.56-24.71-77.3,1-155.91,7.1-235.73,17.83Z" transform="translate(-339.43 -402.25)"/><path class="cls-2" d="M449.37,575.93c-2.8,43.44-3.39,84-2.19,122.23,1.17,37.69,4.07,73.22,8.28,107,49.09,4.34,99.26,6.69,150.61,6.44a1449.75,1449.75,0,0,0,158.22-9.36c2-36.88,2.83-74.49,2.35-113-.49-38.74-2.3-78.81-5.5-120.47A1272.46,1272.46,0,0,0,608,563.48a1518.32,1518.32,0,0,0-158.6,12.45ZM428,698.69a1301.56,1301.56,0,0,1,2.72-131.9h0A9.61,9.61,0,0,1,439,557.9a1543.26,1543.26,0,0,1,168.51-13.64,1287.55,1287.55,0,0,1,163,6.12,9.64,9.64,0,0,1,9.21,8.89c3.58,44.36,5.6,87.54,6.13,129.77.53,41.93-.42,82.49-2.78,122a9.68,9.68,0,0,1-8.51,9.48,1469.85,1469.85,0,0,1-168.41,10.38c-54.57.27-107.78-2.38-159.78-7.18a9.6,9.6,0,0,1-9-8.35c-4.81-36.68-8.13-75.36-9.41-116.64Z" transform="translate(-339.43 -402.25)"/><path class="cls-5" d="M440.29,567.43c-6.53,93.23-2.94,173.87,6.61,246.66,103.66,9.58,212.06,10.59,326.53-3.2,4.76-79,3.86-162-3.32-250.88-106.45-11-216.59-7.8-329.82,7.42Z" transform="translate(-339.43 -402.25)"/><path class="cls-6" d="M440.28,567.43a1268.6,1268.6,0,0,0-1,167.21c3.08-48.08,2.34-94.71,10.54-136.94,3-15.21,8.81-19.62,30.36-24.56,57.76-13.27,116.81-15.26,177-19.56-70.85-.88-143.17,3.95-216.81,13.85Z" transform="translate(-339.43 -402.25)"/><polygon class="cls-7" points="134.95 304.24 176.17 249.72 181.87 242.18 187.96 249.39 233.37 302.97 221.84 312.73 182.54 266.35 147 313.34 134.95 304.24 134.95 304.24"/><polygon class="cls-7" points="386.11 308.56 348.7 262.99 311.26 310.93 299.39 301.67 342.62 246.31 348.41 238.9 354.37 246.16 397.74 298.99 386.11 308.56 386.11 308.56"/><polygon class="cls-7" points="222.54 374.89 310.75 373.68 310.87 384.01 222.66 385.24 222.54 374.89 222.54 374.89"/></svg>