<svg width="319" height="130" viewBox="0 0 319 130" fill="none" xmlns="http://www.w3.org/2000/svg">
<path d="M52.1492 36.2791C63.9694 36.2807 73.5845 45.7735 73.5845 57.4418C73.5845 67.3439 66.6584 75.6759 57.338 77.9735L14.8462 36.2791H52.1492ZM104.199 123.953L84.8244 104.943C100.211 94.5955 110.336 77.1657 110.336 57.4418C110.336 25.768 84.2319 0 52.146 0H0.078863V6.04651H52.146C80.8545 6.04651 104.211 29.1018 104.211 57.4418C104.211 75.5102 94.7076 91.4194 80.3844 100.587L73.6863 94.015C86.4331 86.6707 95.0232 73.0314 95.0232 57.4418C95.0232 34.1032 75.7883 15.1163 52.146 15.1163H0.078863V21.1628H52.146C72.4109 21.1628 88.8979 37.4369 88.8979 57.4418C88.8979 71.3851 80.8829 83.5084 69.1676 89.5799L62.223 82.7661C72.4597 78.7935 79.7098 68.9567 79.7098 57.4418C79.7098 42.4141 67.369 30.2325 52.146 30.2325H0L49.2986 78.6048H0.078863V84.6503H52.146V84.6511C53.2058 84.6511 54.2493 84.5861 55.2777 84.4714L63.0446 92.0923C59.599 93.1494 55.9393 93.7209 52.146 93.7209V93.7201H0.078863V99.7667H52.146V99.7675C57.6903 99.7675 62.9864 98.7116 67.8551 96.8123L74.8555 103.681C67.9883 106.981 60.2837 108.837 52.146 108.837H0.078863V114.884H52.146C61.9978 114.884 71.2807 112.446 79.4228 108.162L95.5162 123.953H0.0842228V130H101.68H110.316H110.332L110.339 129.992V129.977L104.199 123.953Z" fill="#141414"/>
<path d="M134.375 79.8501C134.375 80.1201 134.555 80.3001 134.825 80.3001H145.76C151.025 80.3001 154.535 77.9601 155.975 73.5051C156.47 71.9751 156.74 70.3101 156.74 65.0001C156.74 59.6901 156.47 58.0251 155.975 56.4951C154.535 52.0401 151.025 49.7001 145.76 49.7001H134.825C134.555 49.7001 134.375 49.8801 134.375 50.1501V79.8501ZM139.685 75.2601V54.7401C139.685 54.5601 139.775 54.4701 139.955 54.4701H144.5C147.875 54.4701 149.945 55.5951 150.845 58.3401C151.16 59.1951 151.385 60.5451 151.385 65.0001C151.385 69.4101 151.16 70.8051 150.845 71.6601C149.945 74.4051 147.875 75.5301 144.5 75.5301H139.955C139.775 75.5301 139.685 75.4401 139.685 75.2601Z" fill="#141414"/>
<path d="M168.9 79.8501C168.9 80.1201 169.08 80.3001 169.35 80.3001H188.52C188.79 80.3001 188.97 80.1201 188.97 79.8501V75.9801C188.97 75.7101 188.79 75.5301 188.52 75.5301H174.48C174.3 75.5301 174.21 75.4401 174.21 75.2601V67.5201C174.21 67.3401 174.3 67.2501 174.48 67.2501H186.315C186.585 67.2501 186.765 67.0701 186.765 66.8001V62.9301C186.765 62.6601 186.585 62.4801 186.315 62.4801H174.48C174.3 62.4801 174.21 62.3901 174.21 62.2101V54.7401C174.21 54.5601 174.3 54.4701 174.48 54.4701H188.52C188.79 54.4701 188.97 54.2901 188.97 54.0201V50.1501C188.97 49.8801 188.79 49.7001 188.52 49.7001H169.35C169.08 49.7001 168.9 49.8801 168.9 50.1501V79.8501Z" fill="#141414"/>
<path d="M205.824 80.3001C206.094 80.3001 206.274 80.1201 206.274 79.8501V69.0051C206.274 68.8251 206.364 68.7351 206.544 68.7351H212.889C218.829 68.7351 222.969 64.9101 222.969 59.1951C222.969 53.5251 218.829 49.7001 212.889 49.7001H201.414C201.144 49.7001 200.964 49.8801 200.964 50.1501V79.8501C200.964 80.1201 201.144 80.3001 201.414 80.3001H205.824ZM212.574 63.9201H206.544C206.364 63.9201 206.274 63.8301 206.274 63.6501V54.7401C206.274 54.5601 206.364 54.4701 206.544 54.4701H212.574C215.724 54.4701 217.659 56.4051 217.659 59.1951C217.659 62.0301 215.724 63.9201 212.574 63.9201Z" fill="#141414"/>
<path d="M234.259 79.8501C234.259 80.1201 234.439 80.3001 234.709 80.3001H253.879C254.149 80.3001 254.329 80.1201 254.329 79.8501V75.9801C254.329 75.7101 254.149 75.5301 253.879 75.5301H239.839C239.659 75.5301 239.569 75.4401 239.569 75.2601V50.1501C239.569 49.8801 239.389 49.7001 239.119 49.7001H234.709C234.439 49.7001 234.259 49.8801 234.259 50.1501V79.8501Z" fill="#141414"/>
<path d="M274.791 80.7951C280.101 80.7951 284.061 78.2751 285.636 73.4151C286.266 71.5251 286.446 69.8151 286.446 65.0001C286.446 60.1851 286.266 58.4751 285.636 56.5851C284.061 51.7251 280.101 49.2051 274.791 49.2051C269.526 49.2051 265.566 51.7251 263.991 56.5851C263.361 58.4751 263.181 60.1851 263.181 65.0001C263.181 69.8151 263.361 71.5251 263.991 73.4151C265.566 78.2751 269.526 80.7951 274.791 80.7951ZM274.791 76.0251C271.776 76.0251 269.976 74.4951 269.121 72.0201C268.761 70.8951 268.581 69.3201 268.581 65.0001C268.581 60.6351 268.761 59.1051 269.121 57.9801C269.976 55.5051 271.776 53.9751 274.791 53.9751C277.851 53.9751 279.651 55.5051 280.506 57.9801C280.866 59.1051 281.046 60.6351 281.046 65.0001C281.046 69.3201 280.866 70.8951 280.506 72.0201C279.651 74.4951 277.851 76.0251 274.791 76.0251Z" fill="#141414"/>
<path d="M309.233 80.3001C309.503 80.3001 309.683 80.1201 309.683 79.8501V67.7901L318.548 50.1501C318.638 49.9251 318.548 49.7001 318.188 49.7001H313.823C313.508 49.7001 313.328 49.8351 313.193 50.1501L307.163 62.0301H307.028L301.043 50.1501C300.908 49.8351 300.683 49.7001 300.413 49.7001H295.868C295.553 49.7001 295.418 49.9251 295.508 50.1501L304.373 67.7901V79.8501C304.373 80.1201 304.553 80.3001 304.823 80.3001H309.233Z" fill="#141414"/>
</svg>
